STARTFONT 2.1
FONT -FontForge-Sonic Advance 2-Book-R-Normal--8-80-75-75-P-33-ISO10646-1
SIZE 8 75 75
FONTBOUNDINGBOX 6 6 0 0
COMMENT "Generated by fontforge, http://fontforge.sourceforge.net"
COMMENT "Copyright DarkMaxX 2011"
STARTPROPERTIES 40
FOUNDRY "FontForge"
FAMILY_NAME "Sonic Advance 2"
WEIGHT_NAME "Book"
SLANT "R"
SETWIDTH_NAME "Normal"
ADD_STYLE_NAME ""
PIXEL_SIZE 8
POINT_SIZE 80
RESOLUTION_X 75
RESOLUTION_Y 75
SPACING "P"
AVERAGE_WIDTH 33
CHARSET_REGISTRY "ISO10646"
CHARSET_ENCODING "1"
FONTNAME_REGISTRY ""
CHARSET_COLLECTIONS "ISO10646-1"
FONT_NAME "Sonic-Advance-2"
FACE_NAME "Sonic Advance 2 Regular"
COPYRIGHT "Copyright DarkMaxX 2011"
FONT_VERSION "1.0"
FONT_ASCENT 6
FONT_DESCENT 2
UNDERLINE_POSITION 1
UNDERLINE_THICKNESS 1
X_HEIGHT 5
CAP_HEIGHT 5
DEFAULT_CHAR 1
RAW_ASCENT 799
RAW_DESCENT 200
NORM_SPACE 2
RELATIVE_WEIGHT 40
RELATIVE_SETWIDTH 50
SUPERSCRIPT_X 0
SUPERSCRIPT_Y 4
SUPERSCRIPT_SIZE 4
SUBSCRIPT_X 0
SUBSCRIPT_Y 0
SUBSCRIPT_SIZE 4
AVG_LOWERCASE_WIDTH 38
AVG_UPPERCASE_WIDTH 38
ENDPROPERTIES
CHARS 87
STARTCHAR glyph1.dup1
ENCODING 0
SWIDTH 0 0
DWIDTH 0 0
BBX 1 1 0 0
BITMAP
00
ENDCHAR
STARTCHAR uni000D
ENCODING 13
SWIDTH 0 0
DWIDTH 0 0
BBX 1 1 0 0
BITMAP
00
ENDCHAR
STARTCHAR space
ENCODING 32
SWIDTH 187 0
DWIDTH 2 0
BBX 1 1 0 0
BITMAP
00
ENDCHAR
STARTCHAR exclam
ENCODING 33
SWIDTH 187 0
DWIDTH 2 0
BBX 1 6 0 0
BITMAP
80
80
80
80
80
80
ENDCHAR
STARTCHAR quotedbl
ENCODING 34
SWIDTH 375 0
DWIDTH 3 0
BBX 3 1 0 5
BITMAP
E0
ENDCHAR
STARTCHAR dollar
ENCODING 36
SWIDTH 437 0
DWIDTH 4 0
BBX 3 6 0 0
BITMAP
60
C0
C0
E0
60
E0
ENDCHAR
STARTCHAR quotesingle
ENCODING 39
SWIDTH 187 0
DWIDTH 2 0
BBX 1 1 0 5
BITMAP
80
ENDCHAR
STARTCHAR parenleft
ENCODING 40
SWIDTH 187 0
DWIDTH 2 0
BBX 1 6 0 0
BITMAP
80
80
80
80
80
80
ENDCHAR
STARTCHAR parenright
ENCODING 41
SWIDTH 187 0
DWIDTH 2 0
BBX 1 6 0 0
BITMAP
80
80
80
80
80
80
ENDCHAR
STARTCHAR comma
ENCODING 44
SWIDTH 187 0
DWIDTH 2 0
BBX 1 1 0 0
BITMAP
80
ENDCHAR
STARTCHAR hyphen
ENCODING 45
SWIDTH 375 0
DWIDTH 3 0
BBX 3 1 0 2
BITMAP
E0
ENDCHAR
STARTCHAR period
ENCODING 46
SWIDTH 187 0
DWIDTH 2 0
BBX 1 1 0 0
BITMAP
80
ENDCHAR
STARTCHAR slash
ENCODING 47
SWIDTH 750 0
DWIDTH 6 0
BBX 5 5 0 0
BITMAP
08
10
20
40
80
ENDCHAR
STARTCHAR zero
ENCODING 48
SWIDTH 375 0
DWIDTH 3 0
BBX 3 6 0 0
BITMAP
60
E0
E0
E0
E0
E0
ENDCHAR
STARTCHAR one
ENCODING 49
SWIDTH 250 0
DWIDTH 2 0
BBX 2 6 0 0
BITMAP
C0
C0
C0
C0
C0
C0
ENDCHAR
STARTCHAR two
ENCODING 50
SWIDTH 375 0
DWIDTH 3 0
BBX 3 6 0 0
BITMAP
60
E0
E0
40
80
E0
ENDCHAR
STARTCHAR three
ENCODING 51
SWIDTH 375 0
DWIDTH 3 0
BBX 3 6 0 0
BITMAP
E0
E0
40
60
E0
E0
ENDCHAR
STARTCHAR four
ENCODING 52
SWIDTH 437 0
DWIDTH 4 0
BBX 3 6 0 0
BITMAP
60
E0
E0
E0
E0
60
ENDCHAR
STARTCHAR five
ENCODING 53
SWIDTH 375 0
DWIDTH 3 0
BBX 3 6 0 0
BITMAP
E0
80
E0
60
60
C0
ENDCHAR
STARTCHAR six
ENCODING 54
SWIDTH 375 0
DWIDTH 3 0
BBX 3 6 0 0
BITMAP
60
C0
E0
E0
E0
C0
ENDCHAR
STARTCHAR seven
ENCODING 55
SWIDTH 375 0
DWIDTH 3 0
BBX 3 6 0 0
BITMAP
E0
E0
40
C0
C0
C0
ENDCHAR
STARTCHAR eight
ENCODING 56
SWIDTH 375 0
DWIDTH 3 0
BBX 3 6 0 0
BITMAP
E0
E0
E0
E0
E0
C0
ENDCHAR
STARTCHAR nine
ENCODING 57
SWIDTH 375 0
DWIDTH 3 0
BBX 3 6 0 0
BITMAP
60
E0
E0
E0
60
C0
ENDCHAR
STARTCHAR colon
ENCODING 58
SWIDTH 187 0
DWIDTH 2 0
BBX 1 3 0 0
BITMAP
80
80
80
ENDCHAR
STARTCHAR semicolon
ENCODING 59
SWIDTH 187 0
DWIDTH 2 0
BBX 1 3 0 0
BITMAP
80
80
80
ENDCHAR
STARTCHAR equal
ENCODING 61
SWIDTH 375 0
DWIDTH 3 0
BBX 3 2 0 2
BITMAP
E0
E0
ENDCHAR
STARTCHAR question
ENCODING 63
SWIDTH 375 0
DWIDTH 3 0
BBX 3 6 0 0
BITMAP
60
E0
E0
40
80
80
ENDCHAR
STARTCHAR A
ENCODING 65
SWIDTH 437 0
DWIDTH 4 0
BBX 3 6 0 0
BITMAP
E0
A0
A0
E0
A0
A0
ENDCHAR
STARTCHAR B
ENCODING 66
SWIDTH 437 0
DWIDTH 4 0
BBX 3 6 0 0
BITMAP
C0
E0
A0
E0
E0
E0
ENDCHAR
STARTCHAR C
ENCODING 67
SWIDTH 437 0
DWIDTH 4 0
BBX 3 6 0 0
BITMAP
E0
80
80
80
80
E0
ENDCHAR
STARTCHAR D
ENCODING 68
SWIDTH 437 0
DWIDTH 4 0
BBX 3 6 0 0
BITMAP
E0
A0
A0
A0
A0
E0
ENDCHAR
STARTCHAR E
ENCODING 69
SWIDTH 437 0
DWIDTH 4 0
BBX 3 6 0 0
BITMAP
E0
80
E0
80
80
E0
ENDCHAR
STARTCHAR F
ENCODING 70
SWIDTH 437 0
DWIDTH 4 0
BBX 3 6 0 0
BITMAP
E0
80
E0
80
80
80
ENDCHAR
STARTCHAR G
ENCODING 71
SWIDTH 437 0
DWIDTH 4 0
BBX 3 6 0 0
BITMAP
E0
80
80
E0
A0
E0
ENDCHAR
STARTCHAR H
ENCODING 72
SWIDTH 500 0
DWIDTH 4 0
BBX 4 6 0 0
BITMAP
B0
B0
B0
B0
B0
B0
ENDCHAR
STARTCHAR I
ENCODING 73
SWIDTH 187 0
DWIDTH 2 0
BBX 1 6 0 0
BITMAP
80
80
80
80
80
80
ENDCHAR
STARTCHAR J
ENCODING 74
SWIDTH 375 0
DWIDTH 3 0
BBX 3 6 0 0
BITMAP
60
60
60
60
E0
E0
ENDCHAR
STARTCHAR K
ENCODING 75
SWIDTH 437 0
DWIDTH 4 0
BBX 3 6 0 0
BITMAP
A0
A0
C0
C0
E0
A0
ENDCHAR
STARTCHAR L
ENCODING 76
SWIDTH 437 0
DWIDTH 4 0
BBX 3 6 0 0
BITMAP
80
80
80
80
80
E0
ENDCHAR
STARTCHAR M
ENCODING 77
SWIDTH 437 0
DWIDTH 4 0
BBX 3 6 0 0
BITMAP
A0
A0
A0
E0
E0
A0
ENDCHAR
STARTCHAR N
ENCODING 78
SWIDTH 437 0
DWIDTH 4 0
BBX 3 6 0 0
BITMAP
A0
E0
E0
E0
E0
A0
ENDCHAR
STARTCHAR O
ENCODING 79
SWIDTH 437 0
DWIDTH 4 0
BBX 3 6 0 0
BITMAP
E0
A0
A0
A0
A0
E0
ENDCHAR
STARTCHAR P
ENCODING 80
SWIDTH 437 0
DWIDTH 4 0
BBX 3 6 0 0
BITMAP
C0
E0
A0
C0
80
80
ENDCHAR
STARTCHAR Q
ENCODING 81
SWIDTH 500 0
DWIDTH 4 0
BBX 4 6 0 0
BITMAP
E0
A0
A0
A0
A0
F0
ENDCHAR
STARTCHAR R
ENCODING 82
SWIDTH 437 0
DWIDTH 4 0
BBX 3 6 0 0
BITMAP
C0
E0
A0
C0
E0
A0
ENDCHAR
STARTCHAR S
ENCODING 83
SWIDTH 437 0
DWIDTH 4 0
BBX 3 6 0 0
BITMAP
E0
80
C0
E0
20
E0
ENDCHAR
STARTCHAR T
ENCODING 84
SWIDTH 437 0
DWIDTH 4 0
BBX 3 6 0 0
BITMAP
E0
C0
40
40
40
40
ENDCHAR
STARTCHAR U
ENCODING 85
SWIDTH 437 0
DWIDTH 4 0
BBX 3 6 0 0
BITMAP
A0
A0
A0
A0
A0
E0
ENDCHAR
STARTCHAR V
ENCODING 86
SWIDTH 437 0
DWIDTH 4 0
BBX 3 6 0 0
BITMAP
A0
A0
A0
A0
E0
40
ENDCHAR
STARTCHAR W
ENCODING 87
SWIDTH 437 0
DWIDTH 4 0
BBX 3 6 0 0
BITMAP
E0
E0
E0
E0
E0
A0
ENDCHAR
STARTCHAR X
ENCODING 88
SWIDTH 437 0
DWIDTH 4 0
BBX 3 6 0 0
BITMAP
A0
A0
A0
60
A0
A0
ENDCHAR
STARTCHAR Y
ENCODING 89
SWIDTH 437 0
DWIDTH 4 0
BBX 3 6 0 0
BITMAP
A0
A0
E0
40
40
40
ENDCHAR
STARTCHAR Z
ENCODING 90
SWIDTH 437 0
DWIDTH 4 0
BBX 3 6 0 0
BITMAP
E0
E0
60
40
C0
E0
ENDCHAR
STARTCHAR bracketleft
ENCODING 91
SWIDTH 250 0
DWIDTH 2 0
BBX 2 6 0 0
BITMAP
C0
80
80
80
80
C0
ENDCHAR
STARTCHAR bracketright
ENCODING 93
SWIDTH 250 0
DWIDTH 2 0
BBX 2 6 0 0
BITMAP
C0
C0
C0
C0
C0
C0
ENDCHAR
STARTCHAR underscore
ENCODING 95
SWIDTH 500 0
DWIDTH 4 0
BBX 4 1 0 0
BITMAP
F0
ENDCHAR
STARTCHAR a
ENCODING 97
SWIDTH 437 0
DWIDTH 4 0
BBX 3 6 0 0
BITMAP
E0
A0
A0
E0
A0
A0
ENDCHAR
STARTCHAR b
ENCODING 98
SWIDTH 437 0
DWIDTH 4 0
BBX 3 6 0 0
BITMAP
C0
E0
A0
E0
E0
E0
ENDCHAR
STARTCHAR c
ENCODING 99
SWIDTH 437 0
DWIDTH 4 0
BBX 3 6 0 0
BITMAP
E0
80
80
80
80
E0
ENDCHAR
STARTCHAR d
ENCODING 100
SWIDTH 437 0
DWIDTH 4 0
BBX 3 6 0 0
BITMAP
E0
A0
A0
A0
A0
E0
ENDCHAR
STARTCHAR e
ENCODING 101
SWIDTH 437 0
DWIDTH 4 0
BBX 3 6 0 0
BITMAP
E0
80
E0
80
80
E0
ENDCHAR
STARTCHAR f
ENCODING 102
SWIDTH 437 0
DWIDTH 4 0
BBX 3 6 0 0
BITMAP
E0
80
E0
80
80
80
ENDCHAR
STARTCHAR g
ENCODING 103
SWIDTH 437 0
DWIDTH 4 0
BBX 3 6 0 0
BITMAP
E0
80
80
E0
A0
E0
ENDCHAR
STARTCHAR h
ENCODING 104
SWIDTH 500 0
DWIDTH 4 0
BBX 4 6 0 0
BITMAP
B0
B0
B0
B0
B0
B0
ENDCHAR
STARTCHAR i
ENCODING 105
SWIDTH 187 0
DWIDTH 2 0
BBX 1 6 0 0
BITMAP
80
80
80
80
80
80
ENDCHAR
STARTCHAR j
ENCODING 106
SWIDTH 375 0
DWIDTH 3 0
BBX 3 6 0 0
BITMAP
60
60
60
60
E0
E0
ENDCHAR
STARTCHAR k
ENCODING 107
SWIDTH 437 0
DWIDTH 4 0
BBX 3 6 0 0
BITMAP
A0
A0
C0
C0
E0
A0
ENDCHAR
STARTCHAR l
ENCODING 108
SWIDTH 437 0
DWIDTH 4 0
BBX 3 6 0 0
BITMAP
80
80
80
80
80
E0
ENDCHAR
STARTCHAR m
ENCODING 109
SWIDTH 437 0
DWIDTH 4 0
BBX 3 6 0 0
BITMAP
A0
A0
A0
E0
E0
A0
ENDCHAR
STARTCHAR n
ENCODING 110
SWIDTH 437 0
DWIDTH 4 0
BBX 3 6 0 0
BITMAP
A0
E0
E0
E0
E0
A0
ENDCHAR
STARTCHAR o
ENCODING 111
SWIDTH 437 0
DWIDTH 4 0
BBX 3 6 0 0
BITMAP
E0
A0
A0
A0
A0
E0
ENDCHAR
STARTCHAR p
ENCODING 112
SWIDTH 437 0
DWIDTH 4 0
BBX 3 6 0 0
BITMAP
C0
E0
A0
C0
80
80
ENDCHAR
STARTCHAR q
ENCODING 113
SWIDTH 500 0
DWIDTH 4 0
BBX 4 6 0 0
BITMAP
E0
A0
A0
A0
A0
F0
ENDCHAR
STARTCHAR r
ENCODING 114
SWIDTH 437 0
DWIDTH 4 0
BBX 3 6 0 0
BITMAP
C0
E0
A0
C0
E0
A0
ENDCHAR
STARTCHAR s
ENCODING 115
SWIDTH 437 0
DWIDTH 4 0
BBX 3 6 0 0
BITMAP
E0
80
C0
E0
20
E0
ENDCHAR
STARTCHAR t
ENCODING 116
SWIDTH 437 0
DWIDTH 4 0
BBX 3 6 0 0
BITMAP
E0
C0
40
40
40
40
ENDCHAR
STARTCHAR u
ENCODING 117
SWIDTH 437 0
DWIDTH 4 0
BBX 3 6 0 0
BITMAP
A0
A0
A0
A0
A0
E0
ENDCHAR
STARTCHAR v
ENCODING 118
SWIDTH 437 0
DWIDTH 4 0
BBX 3 6 0 0
BITMAP
A0
A0
A0
A0
E0
40
ENDCHAR
STARTCHAR w
ENCODING 119
SWIDTH 437 0
DWIDTH 4 0
BBX 3 6 0 0
BITMAP
E0
E0
E0
E0
E0
A0
ENDCHAR
STARTCHAR x
ENCODING 120
SWIDTH 437 0
DWIDTH 4 0
BBX 3 6 0 0
BITMAP
A0
A0
A0
60
A0
A0
ENDCHAR
STARTCHAR y
ENCODING 121
SWIDTH 437 0
DWIDTH 4 0
BBX 3 6 0 0
BITMAP
A0
A0
E0
40
40
40
ENDCHAR
STARTCHAR z
ENCODING 122
SWIDTH 437 0
DWIDTH 4 0
BBX 3 6 0 0
BITMAP
E0
E0
60
40
C0
E0
ENDCHAR
STARTCHAR quoteleft
ENCODING 8216
SWIDTH 187 0
DWIDTH 2 0
BBX 1 2 0 4
BITMAP
80
80
ENDCHAR
STARTCHAR quoteright
ENCODING 8217
SWIDTH 187 0
DWIDTH 2 0
BBX 1 2 0 4
BITMAP
80
80
ENDCHAR
STARTCHAR quotedblleft
ENCODING 8220
SWIDTH 375 0
DWIDTH 3 0
BBX 3 2 0 4
BITMAP
C0
E0
ENDCHAR
STARTCHAR quotedblright
ENCODING 8221
SWIDTH 375 0
DWIDTH 3 0
BBX 3 2 0 4
BITMAP
E0
E0
ENDCHAR
STARTCHAR .notdef
ENCODING -1
SWIDTH 0 0
DWIDTH 0 0
BBX 6 6 0 0
BITMAP
FC
CC
DC
CC
DC
FC
ENDCHAR
ENDFONT
